{
  "accessors": [
    {
      "bufferView": 2,
      "componentType": 5126,
      "count": 30727,
      "max": [
        2.121232748031616,
        0.5726056098937988,
        1.0549956560134888
      ],
      "min": [
        -2.121232748031616,
        -7.589127063751221,
        -1.1248565912246704
      ],
      "type": "VEC3"
    },
    {
      "bufferView": 2,
      "byteOffset": 368724,
      "componentType": 5126,
      "count": 30727,
      "max": [
        1.0,
        1.0,
        1.0
      ],
      "min": [
        -1.0,
        -1.0,
        -1.0
      ],
      "type": "VEC3"
    },
    {
      "bufferView": 3,
      "componentType": 5126,
      "count": 30727,
      "max": [
        1.0,
        1.0,
        1.0,
        1.0
      ],
      "min": [
        -1.0,
        -1.0,
        -1.0,
        -1.0
      ],
      "type": "VEC4"
    },
    {
      "bufferView": 1,
      "componentType": 5126,
      "count": 30727,
      "max": [
        0.9709773659706116,
        0.9980827569961548
      ],
      "min": [
        0.001917253015562892,
        0.03200793266296387
      ],
      "type": "VEC2"
    },
    {
      "bufferView": 0,
      "componentType": 5125,
      "count": 154548,
      "type": "SCALAR"
    },
    {
      "bufferView": 2,
      "byteOffset": 737448,
      "componentType": 5126,
      "count": 15000,
      "max": [
        2.0514843463897705,
        7.194900989532471,
        3.336639165878296
      ],
      "min": [
        -2.0494778156280518,
        -0.2947418689727783,
        0.245305597782135
      ],
      "type": "VEC3"
    },
    {
      "bufferView": 2,
      "byteOffset": 917448,
      "componentType": 5126,
      "count": 15000,
      "max": [
        1.0,
        0.9994161128997803,
        0.9999950528144836
      ],
      "min": [
        -1.0,
        -0.9999012351036072,
        -0.9999998211860657
      ],
      "type": "VEC3"
    },
    {
      "bufferView": 3,
      "byteOffset": 491632,
      "componentType": 5126,
      "count": 15000,
      "max": [
        1.0,
        0.9931713342666626,
        0.999991774559021,
        1.0
      ],
      "min": [
        -1.0,
        -0.9999322295188904,
        -0.9999823570251465,
        -1.0
      ],
      "type": "VEC4"
    },
    {
      "bufferView": 1,
      "byteOffset": 245816,
      "componentType": 5126,
      "count": 15000,
      "max": [
        0.9980827569961548,
        0.9980827569961548
      ],
      "min": [
        0.001917253015562892,
        0.02194058895111084
      ],
      "type": "VEC2"
    },
    {
      "bufferView": 0,
      "byteOffset": 618192,
      "componentType": 5125,
      "count": 76092,
      "type": "SCALAR"
    }
  ],
  "asset": {
    "extras": {
      "author": "Juliko Banditto (https://sketchfab.com/juliko_banditto)",
      "license": "CC-BY-4.0 (http://creativecommons.org/licenses/by/4.0/)",
      "source": "https://sketchfab.com/3d-models/motorola-v360-mobile-phone-0bc85df6571d4687af29c348ebd152cc",
      "title": "Motorola V360 Mobile Phone"
    },
    "generator": "Sketchfab-16.75.0",
    "version": "2.0"
  },
  "bufferViews": [
    {
      "buffer": 0,
      "byteLength": 922560,
      "name": "floatBufferViews",
      "target": 34963
    },
    {
      "buffer": 0,
      "byteLength": 365816,
      "byteOffset": 922560,
      "byteStride": 8,
      "name": "floatBufferViews",
      "target": 34962
    },
    {
      "buffer": 0,
      "byteLength": 1097448,
      "byteOffset": 1288376,
      "byteStride": 12,
      "name": "floatBufferViews",
      "target": 34962
    },
    {
      "buffer": 0,
      "byteLength": 731632,
      "byteOffset": 2385824,
      "byteStride": 16,
      "name": "floatBufferViews",
      "target": 34962
    }
  ],
  "buffers": [
    {
      "byteLength": 3117456,
      "uri": "scene.bin"
    }
  ],
  "images": [
    {
      "uri": "textures/Body_baseColor.png"
    },
    {
      "uri": "textures/Body_metallicRoughness.png"
    },
    {
      "uri": "textures/Body_normal.png"
    },
    {
      "uri": "textures/material_baseColor.png"
    },
    {
      "uri": "textures/material_metallicRoughness.png"
    },
    {
      "uri": "textures/material_normal.png"
    }
  ],
  "materials": [
    {
      "doubleSided": true,
      "name": "Body",
      "normalTexture": {
        "index": 2
      },
      "pbrMetallicRoughness": {
        "baseColorTexture": {
          "index": 0
        },
        "metallicRoughnessTexture": {
          "index": 1
        }
      }
    },
    {
      "doubleSided": true,
      "name": "material",
      "normalTexture": {
        "index": 5
      },
      "pbrMetallicRoughness": {
        "baseColorTexture": {
          "index": 3
        },
        "metallicRoughnessTexture": {
          "index": 4
        }
      }
    }
  ],
  "meshes": [
    {
      "name": "Body_Body_0",
      "primitives": [
        {
          "attributes": {
            "NORMAL": 1,
            "POSITION": 0,
            "TANGENT": 2,
            "TEXCOORD_0": 3
          },
          "indices": 4,
          "material": 0,
          "mode": 4
        }
      ]
    },
    {
      "name": "Cap_Cap_0",
      "primitives": [
        {
          "attributes": {
            "NORMAL": 6,
            "POSITION": 5,
            "TANGENT": 7,
            "TEXCOORD_0": 8
          },
          "indices": 9,
          "material": 1,
          "mode": 4
        }
      ]
    }
  ],
  "nodes": [
    {
      "children": [
        1
      ],
      "matrix": [
        1.0,
        0.0,
        0.0,
        0.0,
        0.0,
        2.220446049250313e-16,
        -1.0,
        0.0,
        0.0,
        1.0,
        2.220446049250313e-16,
        0.0,
        0.0,
        0.0,
        0.0,
        1.0
      ],
      "name": "Sketchfab_model"
    },
    {
      "children": [
        2
      ],
      "matrix": [
        0.009999999776482582,
        0.0,
        0.0,
        0.0,
        0.0,
        0.0,
        0.009999999776482582,
        0.0,
        0.0,
        -0.009999999776482582,
        0.0,
        0.0,
        0.0,
        0.0,
        0.0,
        1.0
      ],
      "name": "Motorola V360.fbx"
    },
    {
      "children": [
        3
      ],
      "name": "RootNode"
    },
    {
      "children": [
        4,
        6
      ],
      "name": "Motorola_V360"
    },
    {
      "children": [
        5
      ],
      "name": "Body"
    },
    {
      "mesh": 0,
      "name": "Body_Body_0"
    },
    {
      "children": [
        7
      ],
      "name": "Cap"
    },
    {
      "mesh": 1,
      "name": "Cap_Cap_0"
    }
  ],
  "samplers": [
    {
      "magFilter": 9729,
      "minFilter": 9987,
      "wrapS": 10497,
      "wrapT": 10497
    }
  ],
  "scene": 0,
  "scenes": [
    {
      "name": "Sketchfab_Scene",
      "nodes": [
        0
      ]
    }
  ],
  "textures": [
    {
      "sampler": 0,
      "source": 0
    },
    {
      "sampler": 0,
      "source": 1
    },
    {
      "sampler": 0,
      "source": 2
    },
    {
      "sampler": 0,
      "source": 3
    },
    {
      "sampler": 0,
      "source": 4
    },
    {
      "sampler": 0,
      "source": 5
    }
  ]
}
